<?xml version="1.0" encoding="UTF-8"?> <!-- Creator: CorelDRAW 2019 (64-Bit) --> <svg xmlns="http://www.w3.org/2000/svg" xmlns:xlink="http://www.w3.org/1999/xlink" xmlns:xodm="http://www.corel.com/coreldraw/odm/2003" xml:space="preserve" width="112.251mm" height="41.9515mm" style="shape-rendering:geometricPrecision; text-rendering:geometricPrecision; image-rendering:optimizeQuality; fill-rule:evenodd; clip-rule:evenodd" viewBox="0 0 70.3952 26.3088"> <defs> <style type="text/css"> <![CDATA[ .fil0 {fill:#1F1F1F;fill-rule:nonzero} ]]> </style> </defs> <g id="Слой_x0020_1"> <metadata id="CorelCorpID_0Corel-Layer"></metadata> <g id="_1038871164000"> <g> <polygon class="fil0" points="47.7038,26.2884 47.7038,5.3347 54.6157,5.3347 54.6157,26.2884 "></polygon> </g> <g> <g> <path class="fil0" d="M8.6143 19.3742c-0.9156,0 -1.667,-0.7246 -1.7026,-1.6316l0 -8.4082c0,-0.1785 0.0028,-0.4736 0.0036,-0.7173 0.0033,-0.9156 0.7246,-1.6697 1.6312,-1.7055l18.7989 0.0021 0 -6.9135 -20.4338 0 0 0.006c0,0 -6.4386,-0.4589 -6.9004,6.7701l-0.0113 0 0 13.0356 0.0035 -0.2212c0.0492,0.2208 0.6933,6.3717 6.9082,6.6979l30.9745 0 0 -6.9114 -28.6362 0c-0.1789,-0.0004 -0.4237,-0.0031 -0.6357,-0.0031z"></path> </g> </g> <g> <polygon class="fil0" points="37.8862,26.0672 37.8862,9.8176 44.8001,9.8176 44.8001,26.0672 "></polygon> </g> <g> <polygon class="fil0" points="44.8001,26.3088 26.6161,26.3088 26.6161,19.3943 44.8001,19.3943 "></polygon> </g> <g> <polygon class="fil0" points="29.0415,6.9139 11.9852,6.9139 11.9852,0 29.0415,0 "></polygon> </g> <g> <polygon class="fil0" points="44.8001,16.4902 31.9452,16.4902 31.9452,9.8176 44.8001,9.8176 "></polygon> </g> <path class="fil0" d="M70.395 6.9139l0 -0.0031 -0.0203 -0.3067c-0.1311,-0.8419 -1.0533,-6.2877 -6.8916,-6.5942l-0.0849 0 0 -0.0099 -31.453 0 0 6.9141 38.45 0 0 -0.0001 -0.0002 0z"></path> </g> </g> </svg> 