<svg width="31" height="31" viewBox="0 0 31 31" fill="none" xmlns="http://www.w3.org/2000/svg">
<path d="M25.8979 14.2084H5.10208C4.42438 14.2084 3.875 14.7578 3.875 15.4355V15.5646C3.875 16.2423 4.42438 16.7917 5.10208 16.7917H25.8979C26.5756 16.7917 27.125 16.2423 27.125 15.5646V15.4355C27.125 14.7578 26.5756 14.2084 25.8979 14.2084Z" fill="black"/>
<path d="M25.8979 20.6666H5.10208C4.42438 20.6666 3.875 21.216 3.875 21.8937V22.0229C3.875 22.7006 4.42438 23.25 5.10208 23.25H25.8979C26.5756 23.25 27.125 22.7006 27.125 22.0229V21.8937C27.125 21.216 26.5756 20.6666 25.8979 20.6666Z" fill="black"/>
<path d="M25.8979 7.75H5.10208C4.42438 7.75 3.875 8.29938 3.875 8.97708V9.10625C3.875 9.78395 4.42438 10.3333 5.10208 10.3333H25.8979C26.5756 10.3333 27.125 9.78395 27.125 9.10625V8.97708C27.125 8.29938 26.5756 7.75 25.8979 7.75Z" fill="black"/>
</svg>
