<svg width="30" height="27" viewBox="0 0 30 27" fill="none" xmlns="http://www.w3.org/2000/svg">
<path fill-rule="evenodd" clip-rule="evenodd" d="M12.17 0.99318C12.1673 0.993159 12.1647 0.993159 12.162 0.99318C12.1452 0.995661 12.1285 0.999008 12.112 1.00319C12.07 1.00963 12.029 1.02136 11.99 1.03816L0.428002 5.98317C0.350916 5.99605 0.277923 6.02682 0.214882 6.07301C0.151842 6.11921 0.100506 6.17954 0.0649991 6.24916C0.0636299 6.25248 0.0622987 6.25582 0.0610013 6.25917C0.00434633 6.36291 -0.013725 6.48334 0.00999876 6.59914V21.4852C0.0100867 21.5056 0.0114241 21.5259 0.0140004 21.5462C0.013967 21.5495 0.013967 21.5528 0.0140004 21.5562C0.0156735 21.5666 0.017675 21.5769 0.0200009 21.5872C0.0343963 21.6704 0.069642 21.7487 0.122452 21.8146C0.175262 21.8805 0.243914 21.9319 0.321999 21.9641L11.99 26.9542C12.0458 26.9781 12.1054 26.9916 12.166 26.9942C12.1733 26.9943 12.1807 26.9943 12.188 26.9942C12.1887 26.9942 12.1893 26.9942 12.19 26.9942C12.195 26.9942 12.2 26.9942 12.205 26.9942C12.2117 26.9943 12.2183 26.9943 12.225 26.9942C12.2353 26.9945 12.2457 26.9945 12.256 26.9942C12.3069 26.9895 12.3568 26.977 12.404 26.9572L18.75 24.2422C19.2316 25.0792 19.925 25.7746 20.7606 26.2586C21.5961 26.7425 22.5444 26.9979 23.51 26.9992C26.542 26.9992 29.01 24.5312 29.01 21.4992C29.01 18.7662 27.002 16.4991 24.385 16.0781V6.63417C24.4047 6.56068 24.4074 6.48364 24.3928 6.40895C24.3783 6.33426 24.3469 6.26385 24.301 6.20314C24.2625 6.14534 24.2124 6.09622 24.1539 6.05885C24.0953 6.02149 24.0296 5.9968 23.961 5.98622L12.404 1.04219C12.3625 1.02403 12.3188 1.0116 12.274 1.0052C12.2693 1.00514 12.2647 1.00514 12.26 1.0052C12.2477 1.00475 12.2353 1.00475 12.223 1.0052C12.2053 1.00427 12.1877 1.00427 12.17 1.0052V0.99318ZM12.197 2.03621L14.649 3.08321L4.259 7.52614C4.24952 7.53051 4.24018 7.53522 4.231 7.54018L1.777 6.49123L12.197 2.03621ZM15.922 3.62819L18.895 4.89919L8.311 9.42519C8.2098 9.46812 8.12556 9.54318 8.07133 9.63881C8.0171 9.73444 7.9959 9.84535 8.011 9.95424C8.01016 9.96722 8.00982 9.98017 8.01 9.99318V15.3412L6.926 13.7152C6.85841 13.6137 6.75605 13.5404 6.63818 13.509C6.52031 13.4777 6.39506 13.4906 6.286 13.5452L5.01 14.1821V8.29421L15.922 3.62819ZM20.164 5.44215L22.617 6.49123L12.197 10.9481L9.747 9.89919L20.135 5.45619C20.1452 5.45186 20.1552 5.44715 20.165 5.44215H20.164ZM1.01 7.25221L4.01 8.5342V14.9932C4.01009 15.0783 4.03191 15.162 4.0734 15.2363C4.11488 15.3107 4.17466 15.3732 4.24707 15.418C4.31947 15.4628 4.40211 15.4883 4.48715 15.4922C4.57219 15.4961 4.65681 15.4782 4.733 15.4402L6.338 14.6372L8.066 17.2291C8.11232 17.319 8.1848 17.3928 8.27389 17.4407C8.36298 17.4885 8.46448 17.5082 8.565 17.4972C8.5825 17.4948 8.59986 17.4914 8.617 17.4872C8.62233 17.4873 8.62767 17.4873 8.633 17.4872C8.64411 17.4842 8.65512 17.4809 8.666 17.4772C8.71337 17.4619 8.7582 17.4396 8.799 17.4111C8.87415 17.3588 8.93348 17.2869 8.97051 17.2031C9.00754 17.1194 9.02086 17.027 9.009 16.9362V10.6742L11.697 11.8231V25.7392L1.01 21.1671V7.25514V7.25221ZM23.385 7.25221V15.9992C22.1647 16.0289 20.9889 16.4633 20.0424 17.234C19.0959 18.0048 18.4323 19.0683 18.156 20.2572L16.924 20.7822L14.008 22.0302C13.886 22.0821 13.7896 22.1805 13.7401 22.3035C13.6906 22.4265 13.692 22.5642 13.744 22.6862C13.796 22.8082 13.8943 22.9045 14.0173 22.954C14.1403 23.0035 14.278 23.0022 14.4 22.9502L17.316 21.7022L18.014 21.4052C18.014 21.4342 18.01 21.4632 18.01 21.4932C18.01 22.1372 18.128 22.7532 18.332 23.3272L12.697 25.7372V11.8212L23.385 7.25221ZM23.51 16.9922C26.001 16.9922 28.01 19.0022 28.01 21.4922C28.01 23.9842 26.001 25.9922 23.51 25.9922C22.9188 25.9933 22.3331 25.8775 21.7867 25.6517C21.2402 25.426 20.7437 25.0946 20.3257 24.6765C19.9076 24.2585 19.5762 23.7619 19.3504 23.2155C19.1246 22.669 19.0089 22.0834 19.01 21.4922C19.01 19.0022 21.019 16.9922 23.51 16.9922ZM17.104 18.7451C17.0418 18.7481 16.9808 18.7628 16.924 18.7882L14.008 20.0361C13.9438 20.0591 13.885 20.095 13.8351 20.1415C13.7853 20.188 13.7455 20.2443 13.7182 20.3068C13.6909 20.3693 13.6767 20.4367 13.6764 20.5049C13.6761 20.5731 13.6898 20.6407 13.7165 20.7034C13.7433 20.7661 13.7826 20.8226 13.8321 20.8695C13.8815 20.9165 13.9401 20.9528 14.0041 20.9763C14.0681 20.9998 14.1363 21.0101 14.2043 21.0062C14.2724 21.0024 14.339 20.9847 14.4 20.9542L17.316 19.7081C17.4256 19.6639 17.5159 19.5822 17.5711 19.4777C17.6262 19.3731 17.6425 19.2525 17.6171 19.1371C17.5916 19.0217 17.5262 18.9189 17.4323 18.8472C17.3383 18.7754 17.222 18.7393 17.104 18.7451ZM26.484 19.2601C26.3708 19.2598 26.2608 19.2979 26.172 19.3682L22.293 22.3281L20.986 20.7282C20.9022 20.6254 20.781 20.5602 20.6491 20.5468C20.5171 20.5334 20.3853 20.5728 20.2825 20.6566C20.1797 20.7404 20.1145 20.8617 20.1011 20.9937C20.0876 21.1256 20.1272 21.2575 20.211 21.3602L22.131 23.7102L26.779 20.1632C26.8639 20.1009 26.9269 20.0133 26.9591 19.9131C26.9913 19.8129 26.991 19.705 26.9583 19.6049C26.9256 19.5048 26.8622 19.4176 26.777 19.3557C26.6918 19.2938 26.5893 19.2603 26.484 19.2601Z" fill="black"/>
</svg>
