<svg width="30" height="26" viewBox="0 0 30 26" fill="none" xmlns="http://www.w3.org/2000/svg">
<path d="M5.492 0.994141C5.43531 0.994988 5.37918 1.00547 5.326 1.02514C4.19194 1.07 3.11689 1.54248 2.31696 2.3476C1.51703 3.15273 1.05152 4.23081 1.014 5.36514C1.014 5.36581 1.014 5.36647 1.014 5.36714C0.986352 5.46013 0.986352 5.55915 1.014 5.65214C1.04483 6.55308 1.34613 7.42387 1.8787 8.1512C2.41126 8.87853 3.15043 9.42871 4 9.73014V19.0081H0.5C0.367392 19.0081 0.240215 19.0608 0.146447 19.1546C0.0526784 19.2484 0 19.3755 0 19.5081V22.5081C0 22.6407 0.0526784 22.7679 0.146447 22.8617C0.240215 22.9555 0.367392 23.0081 0.5 23.0081H2V24.5081C2 24.6407 2.05268 24.7679 2.14645 24.8617C2.24021 24.9555 2.36739 25.0081 2.5 25.0081H5.5C5.63261 25.0081 5.75979 24.9555 5.85355 24.8617C5.94732 24.7679 6 24.6407 6 24.5081V23.0081H24V24.5081C24 24.6407 24.0527 24.7679 24.1464 24.8617C24.2402 24.9555 24.3674 25.0081 24.5 25.0081H27.5C27.6326 25.0081 27.7598 24.9555 27.8536 24.8617C27.9473 24.7679 28 24.6407 28 24.5081V23.0081H29.5C29.6326 23.0081 29.7598 22.9555 29.8536 22.8617C29.9473 22.7679 30 22.6407 30 22.5081V19.5081C30 19.3755 29.9473 19.2484 29.8536 19.1546C29.7598 19.0608 29.6326 19.0081 29.5 19.0081H25V9.50814C25 9.37553 24.9473 9.24835 24.8536 9.15459C24.7598 9.06082 24.6326 9.00814 24.5 9.00814H21.092C21.059 9.00213 21.0255 8.99945 20.992 9.00014C20.9625 9.00021 20.933 9.00288 20.904 9.00814H18.092C18.059 9.00213 18.0255 8.99945 17.992 9.00014C17.9625 9.00021 17.933 9.00288 17.904 9.00814H14.5C14.3674 9.00814 14.2402 9.06082 14.1464 9.15459C14.0527 9.24835 14 9.37553 14 9.50814V19.0081H7V9.73014C7.85004 9.42822 8.58949 8.87737 9.12207 8.14931C9.65465 7.42124 9.95569 6.5497 9.986 5.64814C10.0134 5.55433 10.0127 5.45456 9.984 5.36114C9.94599 4.22769 9.48047 3.15061 8.68097 2.34628C7.88146 1.54196 6.8072 1.06997 5.674 1.02514C5.61572 1.00394 5.554 0.992767 5.492 0.994141ZM5 2.05714V2.50014C5 2.63275 5.05268 2.75993 5.14645 2.85369C5.24021 2.94746 5.36739 3.00014 5.5 3.00014C5.63261 3.00014 5.75979 2.94746 5.85355 2.85369C5.94732 2.75993 6 2.63275 6 2.50014V2.05714C6.74508 2.16276 7.4357 2.50753 7.96791 3.03956C8.50012 3.57159 8.84513 4.26209 8.951 5.00714H8.5C8.36739 5.00714 8.24021 5.05982 8.14645 5.15359C8.05268 5.24736 8 5.37453 8 5.50714C8 5.63975 8.05268 5.76693 8.14645 5.86069C8.24021 5.95446 8.36739 6.00714 8.5 6.00714H8.951C8.84579 6.75256 8.50103 7.44354 7.96871 7.97586C7.4364 8.50817 6.74542 8.85293 6 8.95814V8.51714C6.00108 8.45013 5.98868 8.38359 5.96353 8.32147C5.93839 8.25934 5.90101 8.20291 5.85362 8.15552C5.80623 8.10813 5.7498 8.07075 5.68767 8.04561C5.62555 8.02046 5.55901 8.00806 5.492 8.00914C5.42634 8.01018 5.36152 8.02415 5.30126 8.05025C5.24099 8.07634 5.18646 8.11405 5.14077 8.16123C5.09508 8.2084 5.05913 8.26411 5.03498 8.32518C5.01083 8.38625 4.99894 8.45148 5 8.51714V8.95814C4.25473 8.85299 3.56385 8.50837 3.03156 7.97625C2.49926 7.44413 2.15441 6.75338 2.049 6.00814H2.5C2.63261 6.00814 2.75979 5.95546 2.85355 5.86169C2.94732 5.76793 3 5.64075 3 5.50814C3 5.37553 2.94732 5.24836 2.85355 5.15459C2.75979 5.06082 2.63261 5.00814 2.5 5.00814H2.049C2.15487 4.26309 2.49988 3.57259 3.03209 3.04056C3.5643 2.50853 4.25492 2.16276 5 2.05714ZM3.662 3.58714C3.56207 3.58654 3.46425 3.61589 3.38116 3.67142C3.29807 3.72694 3.23353 3.80609 3.19586 3.89865C3.15819 3.99122 3.14912 4.09294 3.16982 4.19071C3.19052 4.28847 3.24005 4.37779 3.312 4.44714L4.48 5.61314C4.43439 5.77887 4.43272 5.95362 4.47515 6.1202C4.51759 6.28677 4.60266 6.43943 4.722 6.56314C4.977 6.81814 5.342 6.88914 5.672 6.80714L6.142 7.27514C6.18812 7.3229 6.2433 7.36099 6.3043 7.38719C6.3653 7.4134 6.43091 7.42719 6.4973 7.42777C6.56369 7.42834 6.62953 7.41569 6.69098 7.39055C6.75243 7.36541 6.80825 7.32828 6.8552 7.28134C6.90214 7.23439 6.93927 7.17857 6.96441 7.11712C6.98955 7.05567 7.0022 6.98983 7.00163 6.92344C7.00105 6.85705 6.98726 6.79144 6.96105 6.73044C6.93485 6.66944 6.89676 6.61426 6.849 6.56814L6.379 6.10014C6.42465 5.93402 6.42625 5.75887 6.38364 5.59194C6.34103 5.42502 6.25568 5.27206 6.136 5.14814C6.01229 5.0288 5.85963 4.94373 5.69306 4.9013C5.52648 4.85886 5.35173 4.86053 5.186 4.90614L4.02 3.74014C3.97351 3.69217 3.91787 3.65401 3.85639 3.6279C3.7949 3.6018 3.7288 3.58728 3.662 3.58714ZM5 9.95814C5.11 9.97014 5.217 9.98714 5.328 9.99114C5.43966 10.0323 5.56234 10.0323 5.674 9.99114C5.784 9.98714 5.891 9.97114 6 9.95814V19.0081H5V9.95814ZM15 10.0081H17.5V13.4481C17.4915 13.5163 17.4972 13.5855 17.5166 13.6514C17.536 13.7173 17.5689 13.7785 17.613 13.8311C17.6137 13.8325 17.6143 13.8338 17.615 13.8351C17.6248 13.8466 17.6352 13.8576 17.646 13.8681C17.6661 13.8883 17.6878 13.9067 17.711 13.9231C17.7156 13.9266 17.7203 13.9299 17.725 13.9331C17.7257 13.9331 17.7263 13.9331 17.727 13.9331C17.818 13.9926 17.9259 14.0207 18.0344 14.0133C18.1428 14.0059 18.2459 13.9634 18.328 13.8921C18.3287 13.8915 18.3293 13.8908 18.33 13.8901L19.5 13.1101L20.672 13.8921C20.7434 13.9538 20.8307 13.9941 20.924 14.0082C21.0172 14.0224 21.1126 14.0099 21.199 13.9721C21.224 13.9618 21.248 13.9494 21.271 13.9351C21.2771 13.9313 21.2831 13.9273 21.289 13.9231C21.3157 13.904 21.3405 13.8822 21.363 13.8581C21.3746 13.8464 21.3856 13.834 21.396 13.8211C21.396 13.8205 21.396 13.8198 21.396 13.8191C21.4373 13.767 21.4677 13.7072 21.4856 13.6431C21.5034 13.5791 21.5083 13.5121 21.5 13.4461V10.0091H24V19.0091H15V10.0081ZM18.5 10.0081H20.5V12.5751L19.777 12.0931C19.6933 12.0373 19.5946 12.008 19.494 12.0091C19.3975 12.0104 19.3033 12.0396 19.223 12.0931L18.5 12.5751V10.0081ZM1 20.0081H29V22.0081H1V20.0081ZM3 23.0081H5V24.0081H3V23.0081ZM25 23.0081H27V24.0081H25V23.0081Z" fill="black"/>
</svg>
