<svg width="28" height="19" viewBox="0 0 28 19" fill="none" xmlns="http://www.w3.org/2000/svg">
<path d="M18.48 8.0799H26.16V7.76735L22.5318 4.2399H18.48V8.0799ZM18.48 9.3599V13.8396C19.0638 13.0625 19.9932 12.5599 21.04 12.5599C22.3522 12.5599 23.4799 13.3497 23.9737 14.4799H26.16V9.3599H18.48ZM17.2 14.4799V2.9599V1.6799H1.84V14.4799H2.74627C3.24006 13.3497 4.36779 12.5599 5.68 12.5599C6.9922 12.5599 8.11993 13.3497 8.61373 14.4799H17.2ZM18.48 2.9599H23.0514L27.44 7.22657V14.4799C27.44 15.1868 26.8669 15.7599 26.16 15.7599H24.24C24.24 17.5272 22.8073 18.9599 21.04 18.9599C19.2727 18.9599 17.84 17.5272 17.84 15.7599H8.88C8.88 17.5272 7.44731 18.9599 5.68 18.9599C3.91269 18.9599 2.48 17.5272 2.48 15.7599H1.84C1.13307 15.7599 0.559998 15.1868 0.559998 14.4799V1.6799C0.559998 0.972978 1.13307 0.399902 1.84 0.399902H17.2C17.9069 0.399902 18.48 0.972978 18.48 1.6799V2.9599ZM5.68 17.6799C6.74038 17.6799 7.6 16.8203 7.6 15.7599C7.6 14.6995 6.74038 13.8399 5.68 13.8399C4.61961 13.8399 3.76 14.6995 3.76 15.7599C3.76 16.8203 4.61961 17.6799 5.68 17.6799ZM21.04 17.6799C22.1004 17.6799 22.96 16.8203 22.96 15.7599C22.96 14.6995 22.1004 13.8399 21.04 13.8399C19.9796 13.8399 19.12 14.6995 19.12 15.7599C19.12 16.8203 19.9796 17.6799 21.04 17.6799Z" fill="black"/>
</svg>
